<svg width="32" height="33" viewBox="0 0 32 33" fill="none" xmlns="http://www.w3.org/2000/svg">
<path d="M1.6642 10.8859V11.2142C1.6642 16.2775 1.66336 21.3409 1.66586 26.4042C1.66586 26.6534 1.66753 26.9059 1.7092 27.15C2.0792 29.3525 3.81753 30.8259 6.06503 30.83C10.0667 30.8367 14.0692 30.8317 18.0717 30.8317H18.4084C18.35 30.5975 18.2925 30.4192 18.2642 30.2367C18.0342 28.7692 17.8267 27.2984 17.5784 25.8342C17.4567 25.1209 17.5334 24.4684 17.845 23.8084C19.2909 20.7492 20.7125 17.6775 22.1442 14.6117C23.0984 12.5684 25.18 11.8067 27.2242 12.7575C28.2367 13.2275 29.2425 13.7117 30.2409 14.185V10.8859H1.6642ZM13.2367 26.8367C12.1459 26.8425 11.0559 26.8384 9.96503 26.8384C8.8642 26.8375 7.76336 26.8384 6.66253 26.8375C6.2617 26.8375 5.9592 26.6567 5.77253 26.31C5.5917 25.9742 5.61003 25.6267 5.81503 25.3034C6.01503 24.9884 6.32003 24.8442 6.68586 24.8442C8.8767 24.8409 11.0684 24.8375 13.26 24.845C13.8734 24.8475 14.3 25.2834 14.295 25.8559C14.29 26.43 13.8625 26.8334 13.2367 26.8367ZM16.1759 21.4934C16.0559 21.52 15.9284 21.5184 15.805 21.5184C14.2984 21.52 12.7925 21.5192 11.2867 21.5192C9.76003 21.5192 8.23336 21.5225 6.7067 21.5175C5.9892 21.515 5.50503 20.9 5.69003 20.2434C5.81253 19.8084 6.20253 19.525 6.70253 19.5234C7.93836 19.52 9.17503 19.5225 10.4109 19.5225C12.2492 19.5225 14.0875 19.52 15.9259 19.5242C16.4759 19.525 16.9017 19.8992 16.9592 20.41C17.015 20.9109 16.6784 21.3834 16.1759 21.4934ZM16.9384 15.4067C16.8417 15.8142 16.5825 16.0809 16.1634 16.1659C16.0325 16.1925 15.8959 16.1984 15.7617 16.1984C14.2759 16.2009 12.7909 16.2 11.3059 16.2C9.79003 16.2 8.27336 16.2025 6.75753 16.1984C6.08253 16.1959 5.64086 15.7684 5.66003 15.155C5.67586 14.6509 6.05586 14.2509 6.5592 14.21C6.6417 14.2034 6.72503 14.2034 6.80836 14.2034C9.8092 14.2034 12.8109 14.1975 15.8125 14.2134C16.0742 14.2142 16.3717 14.3009 16.59 14.4434C16.9167 14.6567 17.03 15.0184 16.9384 15.4067Z" fill="#3162DF"/>
<path d="M30.2609 6.56587C30.2425 6.14337 30.1992 5.71087 30.0817 5.30754C29.5325 3.41421 27.8725 2.22421 25.8142 2.22337C19.2542 2.22171 12.6942 2.22254 6.13338 2.22337C6.00921 2.22337 5.88421 2.22421 5.75921 2.22921C3.79421 2.30504 2.03338 3.79754 1.75588 5.74671C1.62004 6.69587 1.68754 7.67504 1.66588 8.64004C1.66421 8.70837 1.68254 8.77754 1.69254 8.85587H30.2542C30.2592 8.75837 30.2675 8.66004 30.2684 8.56171C30.2692 7.89587 30.2892 7.23004 30.2609 6.56587ZM7.30838 6.86921C6.76421 6.86671 6.31588 6.42004 6.31421 5.87921C6.31338 5.32921 6.79004 4.86171 7.33588 4.87754C7.88088 4.89254 8.31171 5.34171 8.30588 5.89087C8.30004 6.44254 7.86338 6.87171 7.30838 6.86921ZM10.6525 6.86921C10.0984 6.87337 9.65921 6.44504 9.65254 5.89421C9.64504 5.33171 10.0942 4.87254 10.6484 4.87671C11.1825 4.88087 11.6417 5.34171 11.6434 5.87587C11.645 6.41671 11.1984 6.86504 10.6525 6.86921ZM13.98 6.86837C13.4317 6.87254 12.9809 6.43754 12.9725 5.89504C12.9642 5.33921 13.4217 4.87421 13.9742 4.87754C14.5125 4.88087 14.9659 5.33587 14.9675 5.87421C14.9692 6.41837 14.5259 6.86421 13.98 6.86837Z" fill="#3162DF"/>
<path d="M28.5075 21.4308C28.3209 21.8308 28.1434 22.2142 27.965 22.5967C27.1892 24.2617 26.41 25.9258 25.64 27.5933C25.5 27.8983 25.3 28.1258 25.0117 28.2992C23.7392 29.0642 22.4734 29.8408 21.2034 30.61C20.4075 31.0925 19.6784 30.7517 19.5359 29.8308C19.3042 28.3325 19.0709 26.8342 18.8567 25.3333C18.8259 25.1183 18.8459 24.8625 18.935 24.6675C19.8909 22.5825 20.8659 20.5067 21.8359 18.4283C21.8442 18.4108 21.8617 18.3967 21.9017 18.3508C24.1017 19.3767 26.2909 20.3975 28.5075 21.4308Z" fill="#3162DF"/>
<path d="M30.1609 17.8092C29.9492 18.4225 29.64 19.0025 29.3625 19.6259C27.1367 18.5884 24.9434 17.565 22.715 16.5259C22.9892 15.9484 23.2217 15.4042 23.5 14.8834C24.05 13.8559 25.2792 13.3934 26.3559 13.8409C27.2842 14.2267 28.1975 14.6525 29.09 15.1134C30.0475 15.6084 30.5142 16.785 30.1609 17.8092Z" fill="#3162DF"/>
<path d="M30.2667 26.4633C30.2542 28.6867 28.7817 30.4433 26.5842 30.7742C25.8309 30.8875 25.0501 30.8192 24.2809 30.8308C24.0326 30.835 23.7842 30.8317 23.5351 30.8317C23.5284 30.8092 23.5209 30.7867 23.5142 30.7642C24.2209 30.3342 24.9192 29.89 25.6359 29.4775C26.2092 29.1483 26.6042 28.69 26.8801 28.0908C27.9334 25.7992 29.0059 23.5158 30.0717 21.23C30.1134 21.1392 30.1617 21.0508 30.2434 20.8892C30.2559 21.0408 30.2676 21.1167 30.2676 21.1917C30.2692 22.9492 30.2767 24.7058 30.2667 26.4633Z" fill="#3162DF"/>
</svg>
