<svg width="32" height="32" viewBox="0 0 32 32" fill="none" xmlns="http://www.w3.org/2000/svg">
<path d="M29.2641 18.7075C29.0074 18.2553 28.4288 18.102 27.9805 18.3626C27.5283 18.6193 27.375 19.1979 27.6318 19.6463C30.1837 24.0873 30.8274 27.7927 29.3101 29.3101C26.4094 32.2146 17.3704 27.2217 11.071 20.9223C9.48083 19.3321 8.05159 17.6767 6.80628 16.0214C8.08608 14.2932 9.53831 12.6034 11.071 11.0707C17.3665 4.77502 26.4056 -0.213993 29.3101 2.68668C30.4941 3.87071 30.3715 6.42653 28.969 9.69889C27.4325 13.2855 24.574 17.2744 20.9224 20.9261C20.0679 21.7806 19.1828 22.6044 18.29 23.3708C17.8953 23.708 17.8532 24.3057 18.1904 24.6966C18.5314 25.0913 19.1253 25.1334 19.5161 24.7962C20.4434 23.9992 21.363 23.1409 22.252 22.2557C26.0684 18.4392 29.0687 14.2434 30.6972 10.4423C32.4444 6.36905 32.4214 3.14267 30.6397 1.36088C27.1298 -2.14906 17.949 1.53714 9.74139 9.7487C8.21253 11.2776 6.84076 12.841 5.64143 14.3929C4.56471 12.795 3.67192 11.2125 3.02435 9.70272C1.62194 6.43419 1.49932 3.87838 2.68333 2.69052C4.2007 1.17312 7.89832 1.81303 12.3393 4.36118C12.7876 4.61791 13.3662 4.46464 13.6229 4.01249C13.8797 3.56034 13.7264 2.98557 13.2742 2.72883C7.90982 -0.348106 3.56463 -0.850073 1.35372 1.36088C-0.431872 3.1465 -0.451031 6.36905 1.29624 10.4423C2.06259 12.2355 3.14314 14.1131 4.46125 15.9984C0.135224 22.1982 -1.27485 28.0111 1.35372 30.6397C2.26567 31.5517 3.53781 32 5.09349 32C7.34272 32 10.1859 31.0574 13.3892 29.2028C13.8375 28.9422 13.9908 28.3674 13.7302 27.9153C13.4697 27.467 12.8949 27.3137 12.4428 27.5743C7.9558 30.1799 4.21602 30.8428 2.68333 29.3101C0.706153 27.3329 2.39595 22.5048 5.66442 17.6346C6.87525 19.2018 8.24318 20.7575 9.73756 22.2519C13.554 26.0684 17.7497 29.0648 21.5546 30.6972C23.5663 31.5593 25.3749 31.9923 26.9037 31.9923C28.4671 31.9923 29.7354 31.5402 30.6397 30.6397C32.8506 28.4288 32.3486 24.0797 29.2641 18.7075ZM15.9986 12.8601C14.2667 12.8601 12.8604 14.2664 12.8604 15.9984C12.8604 17.7304 14.2667 19.1366 15.9986 19.1366C17.7306 19.1366 19.1368 17.7304 19.1368 15.9984C19.133 14.2664 17.7306 12.8601 15.9986 12.8601Z" fill="#3162DF"/>
</svg>
